<svg xmlns="http://www.w3.org/2000/svg" version="1.1" id="Isolation_Mode"
  x="0px" y="0px"
  viewBox="1200 1100 2600 2300"
  width="120" height="120" style="max-width:100%;height:auto;">
  <radialGradient id="SVGID_1_" cx="2888.6089" cy="2347.9795" r="605.9425"
    gradientTransform="matrix(6.6166 0 0 5.9093 -16621.2695 -11387.415)" gradientUnits="userSpaceOnUse">
    <stop offset="0" style="stop-color:#FFFFFF"/>
    <stop offset="0.5657" style="stop-color:#FFFFFF"/>
    <stop offset="0.6297" style="stop-color:#FAFAFA"/>
    <stop offset="0.703" style="stop-color:#ECEDED"/>
    <stop offset="0.781" style="stop-color:#D5D6D7"/>
    <stop offset="0.8622" style="stop-color:#B5B6B7"/>
    <stop offset="0.9451" style="stop-color:#8C8D8F"/>
    <stop offset="1" style="stop-color:#6D6E71"/>
  </radialGradient>
  <g>
    <path style="fill:#F7941D;" d="M2326.566,3798.92c2.288-28.646,64.446-839.758-221.149-1147.063
      c-26.884-28.934-56.847-53.393-90.235-72.317c-81.492-46.197-183.363-59.409-310.571-24.027c0,0-202.354,76.772-277.168-29.581
      c-74.808-106.355-4.382-283.077,230.446-251.537c90.753,12.189,229.273,34.705,358.114,138.152
      c36.483,29.287,72.188,65.072,105.8,108.945C2276.648,2723.521,2387.363,3097.148,2326.566,3798.92z"/>
    <g>
      <path style="fill:#F7941D;" d="M2309.114,2232.978c-82.041,153.286,17.437,765.632,15.112,777.225
        c-0.891-1.205-45.81-225.902-88.518-373.499c-65.943-227.897-119.256-517.397,3.293-646.243
        c99.023-106.226,199.913-112.788,265.392-72.095c51.248,33.177,54.322,106.086,7.663,157.008
        C2459.354,2132.891,2371.724,2125.029,2309.114,2232.978z"/>
    </g>
    <ellipse transform="matrix(0.7071 -0.7071 0.7071 0.7071 -815.4863 1871.8376)"
      style="fill:#FFCD03;" cx="1851.765" cy="1920.298" rx="274.258" ry="274.258"/>
  </g>
  <g>
    <path style="fill:#1C75BC;" d="M2591.445,4111.24c-2.289-28.646-64.446-839.758,221.148-1147.063
      c26.884-28.934,56.847-53.393,90.235-72.317c81.492-46.197,183.363-59.409,310.571-24.027c0,0,202.354,76.772,277.168-29.581
      c74.808-106.355,4.382-283.076-230.445-251.537c-90.754,12.189-229.273,34.705-358.114,138.152
      c-36.483,29.287-72.188,65.071-105.8,108.944C2641.362,3035.841,2530.647,3409.469,2591.445,4111.24z"/>
    <g>
      <path style="fill:#1C75BC;" d="M2608.896,2545.298c82.041,153.286-17.437,765.632-15.112,777.225
        c0.892-1.205,45.81-225.902,88.518-373.499c65.943-227.897,119.256-517.397-3.293-646.243
        c-99.023-106.226-199.913-112.788-265.392-72.095c-51.248,33.177-54.322,106.086-7.663,157.008
        C2458.657,2445.211,2546.287,2437.35,2608.896,2545.298z"/>
    </g>
    <ellipse transform="matrix(0.7071 -0.7071 0.7071 0.7071 -680.6168 2822.082)"
      style="fill:#27AAE1;" cx="3066.246" cy="2232.618" rx="274.258" ry="274.258"/>
  </g>
</svg>